0
SECTION
2
HEADER
9
$INSUNITS
70
4
0
ENDSEC
0
SECTION
2
TABLES
0
TABLE
2
LTYPE
0
LTYPE
72
65
70
64
2
CONTINUOUS
3
______
73
0
40
0
0
ENDTAB
0
TABLE
2
LAYER
0
ENDTAB
0
ENDSEC
0
SECTION
2
ENTITIES
0
LINE
8
0
10
89
20
-158.5
11
89
21
-70.5
0
LINE
8
0
10
91
20
-68.5
11
124.2619387
21
-68.5
0
LINE
8
0
10
126.1775913
20
-67.0746958
11
126.5
21
-66
0
LINE
8
0
10
126.5
20
-66
11
143.0119387
21
-66
0
LINE
8
0
10
144.9275913
20
-64.5746958
11
145.25
21
-63.5
0
LINE
8
0
10
145.25
20
-63.5
11
165.7619387
21
-63.5
0
LINE
8
0
10
167.6775913
20
-64.9253042
11
168
21
-66
0
LINE
8
0
10
168
20
-66
11
184.5119957
21
-66
0
LINE
8
0
10
186.4276272
20
-67.425234
11
186.7501
21
-68.5
0
LINE
8
0
10
186.7501
20
-68.5
11
202.75
21
-68.5
0
LINE
8
0
10
204.75
20
-70.5
11
204.75
21
-158.5
0
LINE
8
0
10
202.75
20
-160.5
11
185.5232137
21
-160.5
0
LINE
8
0
10
184.1778682
20
-159.9798801
11
182.5721318
21
-158.5201199
0
LINE
8
0
10
181.2267863
20
-158
11
165.4880613
21
-158
0
LINE
8
0
10
163.5724087
20
-156.5746958
11
163.25
21
-155.5
0
LINE
8
0
10
163.25
20
-155.5
11
150.7380613
21
-155.5
0
LINE
8
0
10
148.8224087
20
-156.9253042
11
148.5
21
-158
0
LINE
8
0
10
148.5
20
-158
11
131.9880613
21
-158
0
LINE
8
0
10
130.0724087
20
-159.4253042
11
129.75
21
-160.5
0
LINE
8
0
10
91
20
-160.5
11
129.75
21
-160.5
0
ARC
8
0
10
91
20
-70.5
40
2
50
90
51
180
0
ARC
8
0
10
124.2619387
20
-66.5
40
2
50
270
51
343.3007552
0
ARC
8
0
10
143.0119387
20
-64
40
2
50
270
51
343.3007552
0
ARC
8
0
10
165.7619387
20
-65.5
40
2
50
16.6992448
51
90
0
ARC
8
0
10
184.5119957
20
-68
40
2
50
16.7013456
51
90
0
ARC
8
0
10
202.75
20
-70.5
40
2
50
0
51
90
0
ARC
8
0
10
202.75
20
-158.5
40
2
50
270
51
0
0
ARC
8
0
10
185.5232137
20
-158.5
40
2
50
227.7263118
51
270
0
ARC
8
0
10
181.2267863
20
-160
40
2
50
47.7263118
51
90
0
ARC
8
0
10
165.4880613
20
-156
40
2
50
196.6992448
51
270
0
ARC
8
0
10
150.7380613
20
-157.5
40
2
50
90
51
163.3007552
0
ARC
8
0
10
131.9880613
20
-160
40
2
50
90
51
163.3007552
0
ARC
8
0
10
91
20
-158.5
40
2
50
180
51
270
0
ENDSEC
0
EOF