0
SECTION
2
HEADER
9
$INSUNITS
70
4
0
ENDSEC
0
SECTION
2
TABLES
0
TABLE
2
LTYPE
0
LTYPE
72
65
70
64
2
CONTINUOUS
3
______
73
0
40
0
0
ENDTAB
0
TABLE
2
LAYER
0
ENDTAB
0
ENDSEC
0
SECTION
2
ENTITIES
0
LINE
8
0
10
358.5
20
-158.5
11
358.5
21
-70.5
0
LINE
8
0
10
356.5
20
-68.5
11
323.4723748
21
-68.5
0
LINE
8
0
10
321.4945021
20
-66.796681
11
321.2554979
21
-65.203319
0
LINE
8
0
10
319.2776252
20
-63.5
11
304.7223748
21
-63.5
0
LINE
8
0
10
302.7445021
20
-61.796681
11
302.5054979
21
-60.203319
0
LINE
8
0
10
300.5276252
20
-58.5
11
281.9723748
21
-58.5
0
LINE
8
0
10
279.9945021
20
-60.203319
11
279.7554979
21
-61.796681
0
LINE
8
0
10
277.7776252
20
-63.5
11
263.2223408
21
-63.5
0
LINE
8
0
10
261.2444739
20
-65.2032804
11
261.0054261
21
-66.7967196
0
LINE
8
0
10
259.0275592
20
-68.5
11
244.75
21
-68.5
0
LINE
8
0
10
242.75
20
-70.5
11
242.75
21
-158.5
0
LINE
8
0
10
244.75
20
-160.5
11
261.5674576
21
-160.5
0
LINE
8
0
10
263.3198894
20
-159.4638374
11
264.9301106
21
-156.5361626
0
LINE
8
0
10
266.6825424
20
-155.5
11
281.7776252
21
-155.5
0
LINE
8
0
10
283.7554979
20
-153.796681
11
283.9945021
21
-152.203319
0
LINE
8
0
10
285.9723748
20
-150.5
11
296.5276252
21
-150.5
0
LINE
8
0
10
298.5054979
20
-152.203319
11
298.7445021
21
-153.796681
0
LINE
8
0
10
300.7223748
20
-155.5
11
315.2776252
21
-155.5
0
LINE
8
0
10
317.2554979
20
-157.203319
11
317.4945021
21
-158.796681
0
LINE
8
0
10
319.4723748
20
-160.5
11
356.5
21
-160.5
0
ARC
8
0
10
356.5
20
-70.5
40
2
50
0
51
90
0
ARC
8
0
10
323.4723748
20
-66.5
40
2
50
188.5307679
51
270
0
ARC
8
0
10
319.2776252
20
-65.5
40
2
50
8.5307679
51
90
0
ARC
8
0
10
304.7223748
20
-61.5
40
2
50
188.5307679
51
270
0
ARC
8
0
10
300.5276252
20
-60.5
40
2
50
8.5307679
51
90
0
ARC
8
0
10
281.9723748
20
-60.5
40
2
50
90
51
171.4692321
0
ARC
8
0
10
277.7776252
20
-61.5
40
2
50
270
51
351.4692321
0
ARC
8
0
10
263.2223408
20
-65.5
40
2
50
90
51
171.4681139
0
ARC
8
0
10
259.0275592
20
-66.5
40
2
50
270
51
351.4681139
0
ARC
8
0
10
244.75
20
-70.5
40
2
50
90
51
180
0
ARC
8
0
10
244.75
20
-158.5
40
2
50
180
51
270
0
ARC
8
0
10
261.5674576
20
-158.5
40
2
50
270
51
331.1892085
0
ARC
8
0
10
266.6825424
20
-157.5
40
2
50
90
51
151.1892085
0
ARC
8
0
10
281.7776252
20
-153.5
40
2
50
270
51
351.4692321
0
ARC
8
0
10
285.9723748
20
-152.5
40
2
50
90
51
171.4692321
0
ARC
8
0
10
296.5276252
20
-152.5
40
2
50
8.5307679
51
90
0
ARC
8
0
10
300.7223748
20
-153.5
40
2
50
188.5307679
51
270
0
ARC
8
0
10
315.2776252
20
-157.5
40
2
50
8.5307679
51
90
0
ARC
8
0
10
319.4723748
20
-158.5
40
2
50
188.5307679
51
270
0
ARC
8
0
10
356.5
20
-158.5
40
2
50
270
51
0
0
ENDSEC
0
EOF