0
SECTION
2
HEADER
9
$INSUNITS
70
4
0
ENDSEC
0
SECTION
2
TABLES
0
TABLE
2
LTYPE
0
LTYPE
72
65
70
64
2
CONTINUOUS
3
______
73
0
40
0
0
ENDTAB
0
TABLE
2
LAYER
0
ENDTAB
0
ENDSEC
0
SECTION
2
ENTITIES
0
LINE
8
0
10
358.5
20
-158.5
11
358.5
21
-70.5
0
LINE
8
0
10
356.5
20
-68.5
11
323.2380613
21
-68.5
0
LINE
8
0
10
321.3224087
20
-67.0746958
11
321
21
-66
0
LINE
8
0
10
321
20
-66
11
304.4880613
21
-66
0
LINE
8
0
10
302.5724087
20
-64.5746958
11
302.25
21
-63.5
0
LINE
8
0
10
302.25
20
-63.5
11
281.7380613
21
-63.5
0
LINE
8
0
10
279.8224087
20
-64.9253042
11
279.5
21
-66
0
LINE
8
0
10
279.5
20
-66
11
262.9880043
21
-66
0
LINE
8
0
10
261.0723728
20
-67.425234
11
260.7499
21
-68.5
0
LINE
8
0
10
260.7499
20
-68.5
11
244.75
21
-68.5
0
LINE
8
0
10
242.75
20
-70.5
11
242.75
21
-158.5
0
LINE
8
0
10
244.75
20
-160.5
11
261.9767863
21
-160.5
0
LINE
8
0
10
263.3221318
20
-159.9798801
11
264.9278682
21
-158.5201199
0
LINE
8
0
10
266.2732137
20
-158
11
282.0119387
21
-158
0
LINE
8
0
10
283.9275913
20
-156.5746958
11
284.25
21
-155.5
0
LINE
8
0
10
284.25
20
-155.5
11
296.7619387
21
-155.5
0
LINE
8
0
10
298.6775913
20
-156.9253042
11
299
21
-158
0
LINE
8
0
10
299
20
-158
11
315.5119387
21
-158
0
LINE
8
0
10
317.4275913
20
-159.4253042
11
317.75
21
-160.5
0
LINE
8
0
10
317.75
20
-160.5
11
356.5
21
-160.5
0
ARC
8
0
10
356.5
20
-70.5
40
2
50
0
51
90
0
ARC
8
0
10
323.2380613
20
-66.5
40
2
50
196.6992448
51
270
0
ARC
8
0
10
304.4880613
20
-64
40
2
50
196.6992448
51
270
0
ARC
8
0
10
281.7380613
20
-65.5
40
2
50
90
51
163.3007552
0
ARC
8
0
10
262.9880043
20
-68
40
2
50
90
51
163.2986544
0
ARC
8
0
10
244.75
20
-70.5
40
2
50
90
51
180
0
ARC
8
0
10
244.75
20
-158.5
40
2
50
180
51
270
0
ARC
8
0
10
261.9767863
20
-158.5
40
2
50
270
51
312.2736882
0
ARC
8
0
10
266.2732137
20
-160
40
2
50
90
51
132.2736882
0
ARC
8
0
10
282.0119387
20
-156
40
2
50
270
51
343.3007552
0
ARC
8
0
10
296.7619387
20
-157.5
40
2
50
16.6992448
51
90
0
ARC
8
0
10
315.5119387
20
-160
40
2
50
16.6992448
51
90
0
ARC
8
0
10
356.5
20
-158.5
40
2
50
270
51
0
0
ENDSEC
0
EOF