0
SECTION
2
HEADER
9
$INSUNITS
70
4
0
ENDSEC
0
SECTION
2
TABLES
0
TABLE
2
LTYPE
0
LTYPE
72
65
70
64
2
CONTINUOUS
3
______
73
0
40
0
0
ENDTAB
0
TABLE
2
LAYER
0
ENDTAB
0
ENDSEC
0
SECTION
2
ENTITIES
0
LINE
8
0
10
89
20
-158.5
11
89
21
-70.5
0
LINE
8
0
10
91
20
-68.5
11
124.0276252
21
-68.5
0
LINE
8
0
10
126.0054979
20
-66.796681
11
126.2445021
21
-65.203319
0
LINE
8
0
10
128.2223748
20
-63.5
11
142.7776252
21
-63.5
0
LINE
8
0
10
144.7554979
20
-61.796681
11
144.9945021
21
-60.203319
0
LINE
8
0
10
146.9723748
20
-58.5
11
165.5276252
21
-58.5
0
LINE
8
0
10
167.5054979
20
-60.203319
11
167.7445021
21
-61.796681
0
LINE
8
0
10
169.7223748
20
-63.5
11
184.2776592
21
-63.5
0
LINE
8
0
10
186.2555261
20
-65.2032804
11
186.4945739
21
-66.7967196
0
LINE
8
0
10
188.4724408
20
-68.5
11
202.75
21
-68.5
0
LINE
8
0
10
204.75
20
-70.5
11
204.75
21
-158.5
0
LINE
8
0
10
202.75
20
-160.5
11
185.9325424
21
-160.5
0
LINE
8
0
10
184.1801106
20
-159.4638374
11
182.5698894
21
-156.5361626
0
LINE
8
0
10
180.8174576
20
-155.5
11
165.7223748
21
-155.5
0
LINE
8
0
10
163.7445021
20
-153.796681
11
163.5054979
21
-152.203319
0
LINE
8
0
10
161.5276252
20
-150.5
11
150.9723748
21
-150.5
0
LINE
8
0
10
148.9945021
20
-152.203319
11
148.7554979
21
-153.796681
0
LINE
8
0
10
146.7776252
20
-155.5
11
132.2223748
21
-155.5
0
LINE
8
0
10
130.2445021
20
-157.203319
11
130.0054979
21
-158.796681
0
LINE
8
0
10
91
20
-160.5
11
128.0276252
21
-160.5
0
ARC
8
0
10
91
20
-70.5
40
2
50
90
51
180
0
ARC
8
0
10
124.0276252
20
-66.5
40
2
50
270
51
351.4692321
0
ARC
8
0
10
128.2223748
20
-65.5
40
2
50
90
51
171.4692321
0
ARC
8
0
10
142.7776252
20
-61.5
40
2
50
270
51
351.4692321
0
ARC
8
0
10
146.9723748
20
-60.5
40
2
50
90
51
171.4692321
0
ARC
8
0
10
165.5276252
20
-60.5
40
2
50
8.5307679
51
90
0
ARC
8
0
10
169.7223748
20
-61.5
40
2
50
188.5307679
51
270
0
ARC
8
0
10
184.2776592
20
-65.5
40
2
50
8.5318861
51
90
0
ARC
8
0
10
188.4724408
20
-66.5
40
2
50
188.5318861
51
270
0
ARC
8
0
10
202.75
20
-70.5
40
2
50
0
51
90
0
ARC
8
0
10
202.75
20
-158.5
40
2
50
270
51
0
0
ARC
8
0
10
185.9325424
20
-158.5
40
2
50
208.8107915
51
270
0
ARC
8
0
10
180.8174576
20
-157.5
40
2
50
28.8107915
51
90
0
ARC
8
0
10
165.7223748
20
-153.5
40
2
50
188.5307679
51
270
0
ARC
8
0
10
161.5276252
20
-152.5
40
2
50
8.5307679
51
90
0
ARC
8
0
10
150.9723748
20
-152.5
40
2
50
90
51
171.4692321
0
ARC
8
0
10
146.7776252
20
-153.5
40
2
50
270
51
351.4692321
0
ARC
8
0
10
132.2223748
20
-157.5
40
2
50
90
51
171.4692321
0
ARC
8
0
10
128.0276252
20
-158.5
40
2
50
270
51
351.4692321
0
ARC
8
0
10
91
20
-158.5
40
2
50
180
51
270
0
ENDSEC
0
EOF