0
SECTION
2
HEADER
9
$INSUNITS
70
4
0
ENDSEC
0
SECTION
2
TABLES
0
TABLE
2
LTYPE
0
LTYPE
72
65
70
64
2
CONTINUOUS
3
______
73
0
40
0
0
ENDTAB
0
TABLE
2
LAYER
0
ENDTAB
0
ENDSEC
0
SECTION
2
ENTITIES
0
LINE
8
0
10
93
20
-157
11
107
21
-157
0
LINE
8
0
10
107
20
-157
11
107
21
-143
0
LINE
8
0
10
107
20
-143
11
93
21
-143
0
LINE
8
0
10
93
20
-143
11
93
21
-157
0
LINE
8
0
10
93
20
-139.25
11
107
21
-139.25
0
LINE
8
0
10
107
20
-139.25
11
107
21
-125.25
0
LINE
8
0
10
107
20
-125.25
11
93
21
-125.25
0
LINE
8
0
10
93
20
-125.25
11
93
21
-139.25
0
LINE
8
0
10
93
20
-121.5
11
107
21
-121.5
0
LINE
8
0
10
107
20
-121.5
11
107
21
-107.5
0
LINE
8
0
10
107
20
-107.5
11
93
21
-107.5
0
LINE
8
0
10
93
20
-107.5
11
93
21
-121.5
0
LINE
8
0
10
93
20
-103.75
11
107
21
-103.75
0
LINE
8
0
10
107
20
-103.75
11
107
21
-89.75
0
LINE
8
0
10
107
20
-89.75
11
93
21
-89.75
0
LINE
8
0
10
93
20
-89.75
11
93
21
-103.75
0
LINE
8
0
10
93
20
-86
11
107
21
-86
0
LINE
8
0
10
107
20
-86
11
107
21
-72
0
LINE
8
0
10
107
20
-72
11
93
21
-72
0
LINE
8
0
10
93
20
-72
11
93
21
-86
0
LINE
8
0
10
111.75
20
-157
11
125.75
21
-157
0
LINE
8
0
10
125.75
20
-157
11
125.75
21
-143
0
LINE
8
0
10
125.75
20
-143
11
111.75
21
-143
0
LINE
8
0
10
111.75
20
-143
11
111.75
21
-157
0
LINE
8
0
10
111.75
20
-139.25
11
125.75
21
-139.25
0
LINE
8
0
10
125.75
20
-139.25
11
125.75
21
-125.25
0
LINE
8
0
10
125.75
20
-125.25
11
111.75
21
-125.25
0
LINE
8
0
10
111.75
20
-125.25
11
111.75
21
-139.25
0
LINE
8
0
10
111.75
20
-121.5
11
125.75
21
-121.5
0
LINE
8
0
10
125.75
20
-121.5
11
125.75
21
-107.5
0
LINE
8
0
10
125.75
20
-107.5
11
111.75
21
-107.5
0
LINE
8
0
10
111.75
20
-107.5
11
111.75
21
-121.5
0
LINE
8
0
10
111.75
20
-103.75
11
125.75
21
-103.75
0
LINE
8
0
10
125.75
20
-103.75
11
125.75
21
-89.75
0
LINE
8
0
10
125.75
20
-89.75
11
111.75
21
-89.75
0
LINE
8
0
10
111.75
20
-89.75
11
111.75
21
-103.75
0
LINE
8
0
10
111.75
20
-86
11
125.75
21
-86
0
LINE
8
0
10
125.75
20
-86
11
125.75
21
-72
0
LINE
8
0
10
125.75
20
-72
11
111.75
21
-72
0
LINE
8
0
10
111.75
20
-72
11
111.75
21
-86
0
LINE
8
0
10
130.5
20
-154.5
11
144.5
21
-154.5
0
LINE
8
0
10
144.5
20
-154.5
11
144.5
21
-140.5
0
LINE
8
0
10
144.5
20
-140.5
11
130.5
21
-140.5
0
LINE
8
0
10
130.5
20
-140.5
11
130.5
21
-154.5
0
LINE
8
0
10
130.5
20
-136.75
11
144.5
21
-136.75
0
LINE
8
0
10
144.5
20
-136.75
11
144.5
21
-122.75
0
LINE
8
0
10
144.5
20
-122.75
11
130.5
21
-122.75
0
LINE
8
0
10
130.5
20
-122.75
11
130.5
21
-136.75
0
LINE
8
0
10
130.5
20
-119
11
144.5
21
-119
0
LINE
8
0
10
144.5
20
-119
11
144.5
21
-105
0
LINE
8
0
10
144.5
20
-105
11
130.5
21
-105
0
LINE
8
0
10
130.5
20
-105
11
130.5
21
-119
0
LINE
8
0
10
130.5
20
-101.25
11
144.5
21
-101.25
0
LINE
8
0
10
144.5
20
-101.25
11
144.5
21
-87.25
0
LINE
8
0
10
144.5
20
-87.25
11
130.5
21
-87.25
0
LINE
8
0
10
130.5
20
-87.25
11
130.5
21
-101.25
0
LINE
8
0
10
130.5
20
-83.5
11
144.5
21
-83.5
0
LINE
8
0
10
144.5
20
-83.5
11
144.5
21
-69.5
0
LINE
8
0
10
144.5
20
-69.5
11
130.5
21
-69.5
0
LINE
8
0
10
130.5
20
-69.5
11
130.5
21
-83.5
0
LINE
8
0
10
149.25
20
-152
11
163.25
21
-152
0
LINE
8
0
10
163.25
20
-152
11
163.25
21
-138
0
LINE
8
0
10
163.25
20
-138
11
149.25
21
-138
0
LINE
8
0
10
149.25
20
-138
11
149.25
21
-152
0
LINE
8
0
10
149.25
20
-134.25
11
163.25
21
-134.25
0
LINE
8
0
10
163.25
20
-134.25
11
163.25
21
-120.25
0
LINE
8
0
10
163.25
20
-120.25
11
149.25
21
-120.25
0
LINE
8
0
10
149.25
20
-120.25
11
149.25
21
-134.25
0
LINE
8
0
10
149.25
20
-116.5
11
163.25
21
-116.5
0
LINE
8
0
10
163.25
20
-116.5
11
163.25
21
-102.5
0
LINE
8
0
10
163.25
20
-102.5
11
149.25
21
-102.5
0
LINE
8
0
10
149.25
20
-102.5
11
149.25
21
-116.5
0
LINE
8
0
10
149.25
20
-98.75
11
163.25
21
-98.75
0
LINE
8
0
10
163.25
20
-98.75
11
163.25
21
-84.75
0
LINE
8
0
10
163.25
20
-84.75
11
149.25
21
-84.75
0
LINE
8
0
10
149.25
20
-84.75
11
149.25
21
-98.75
0
LINE
8
0
10
149.25
20
-81
11
163.25
21
-81
0
LINE
8
0
10
163.25
20
-81
11
163.25
21
-67
0
LINE
8
0
10
163.25
20
-67
11
149.25
21
-67
0
LINE
8
0
10
149.25
20
-67
11
149.25
21
-81
0
LINE
8
0
10
168
20
-154.5
11
182
21
-154.5
0
LINE
8
0
10
182
20
-154.5
11
182
21
-140.5
0
LINE
8
0
10
182
20
-140.5
11
168
21
-140.5
0
LINE
8
0
10
168
20
-140.5
11
168
21
-154.5
0
LINE
8
0
10
168
20
-136.75
11
182
21
-136.75
0
LINE
8
0
10
182
20
-136.75
11
182
21
-122.75
0
LINE
8
0
10
182
20
-122.75
11
168
21
-122.75
0
LINE
8
0
10
168
20
-122.75
11
168
21
-136.75
0
LINE
8
0
10
168
20
-119
11
182
21
-119
0
LINE
8
0
10
182
20
-119
11
182
21
-105
0
LINE
8
0
10
182
20
-105
11
168
21
-105
0
LINE
8
0
10
168
20
-105
11
168
21
-119
0
LINE
8
0
10
168
20
-101.25
11
182
21
-101.25
0
LINE
8
0
10
182
20
-101.25
11
182
21
-87.25
0
LINE
8
0
10
182
20
-87.25
11
168
21
-87.25
0
LINE
8
0
10
168
20
-87.25
11
168
21
-101.25
0
LINE
8
0
10
168
20
-83.5
11
182
21
-83.5
0
LINE
8
0
10
182
20
-83.5
11
182
21
-69.5
0
LINE
8
0
10
182
20
-69.5
11
168
21
-69.5
0
LINE
8
0
10
168
20
-69.5
11
168
21
-83.5
0
LINE
8
0
10
186.75
20
-157
11
200.75
21
-157
0
LINE
8
0
10
200.75
20
-157
11
200.75
21
-143
0
LINE
8
0
10
200.75
20
-143
11
186.75
21
-143
0
LINE
8
0
10
186.75
20
-143
11
186.75
21
-157
0
LINE
8
0
10
186.75
20
-139.25
11
200.75
21
-139.25
0
LINE
8
0
10
200.75
20
-139.25
11
200.75
21
-125.25
0
LINE
8
0
10
200.75
20
-125.25
11
186.75
21
-125.25
0
LINE
8
0
10
186.75
20
-125.25
11
186.75
21
-139.25
0
LINE
8
0
10
186.75
20
-121.5
11
200.75
21
-121.5
0
LINE
8
0
10
200.75
20
-121.5
11
200.75
21
-107.5
0
LINE
8
0
10
200.75
20
-107.5
11
186.75
21
-107.5
0
LINE
8
0
10
186.75
20
-107.5
11
186.75
21
-121.5
0
LINE
8
0
10
186.75
20
-103.75
11
200.75
21
-103.75
0
LINE
8
0
10
200.75
20
-103.75
11
200.75
21
-89.75
0
LINE
8
0
10
200.75
20
-89.75
11
186.75
21
-89.75
0
LINE
8
0
10
186.75
20
-89.75
11
186.75
21
-103.75
0
LINE
8
0
10
186.75
20
-86
11
200.75
21
-86
0
LINE
8
0
10
200.75
20
-86
11
200.75
21
-72
0
LINE
8
0
10
200.75
20
-72
11
186.75
21
-72
0
LINE
8
0
10
186.75
20
-72
11
186.75
21
-86
0
LINE
8
0
10
340.5
20
-157
11
354.5
21
-157
0
LINE
8
0
10
354.5
20
-157
11
354.5
21
-143
0
LINE
8
0
10
354.5
20
-143
11
340.5
21
-143
0
LINE
8
0
10
340.5
20
-143
11
340.5
21
-157
0
LINE
8
0
10
340.5
20
-139.25
11
354.5
21
-139.25
0
LINE
8
0
10
354.5
20
-139.25
11
354.5
21
-125.25
0
LINE
8
0
10
354.5
20
-125.25
11
340.5
21
-125.25
0
LINE
8
0
10
340.5
20
-125.25
11
340.5
21
-139.25
0
LINE
8
0
10
340.5
20
-121.5
11
354.5
21
-121.5
0
LINE
8
0
10
354.5
20
-121.5
11
354.5
21
-107.5
0
LINE
8
0
10
354.5
20
-107.5
11
340.5
21
-107.5
0
LINE
8
0
10
340.5
20
-107.5
11
340.5
21
-121.5
0
LINE
8
0
10
340.5
20
-103.75
11
354.5
21
-103.75
0
LINE
8
0
10
354.5
20
-103.75
11
354.5
21
-89.75
0
LINE
8
0
10
354.5
20
-89.75
11
340.5
21
-89.75
0
LINE
8
0
10
340.5
20
-89.75
11
340.5
21
-103.75
0
LINE
8
0
10
340.5
20
-86
11
354.5
21
-86
0
LINE
8
0
10
354.5
20
-86
11
354.5
21
-72
0
LINE
8
0
10
354.5
20
-72
11
340.5
21
-72
0
LINE
8
0
10
340.5
20
-72
11
340.5
21
-86
0
LINE
8
0
10
321.75
20
-157
11
335.75
21
-157
0
LINE
8
0
10
335.75
20
-157
11
335.75
21
-143
0
LINE
8
0
10
335.75
20
-143
11
321.75
21
-143
0
LINE
8
0
10
321.75
20
-143
11
321.75
21
-157
0
LINE
8
0
10
321.75
20
-139.25
11
335.75
21
-139.25
0
LINE
8
0
10
335.75
20
-139.25
11
335.75
21
-125.25
0
LINE
8
0
10
335.75
20
-125.25
11
321.75
21
-125.25
0
LINE
8
0
10
321.75
20
-125.25
11
321.75
21
-139.25
0
LINE
8
0
10
321.75
20
-121.5
11
335.75
21
-121.5
0
LINE
8
0
10
335.75
20
-121.5
11
335.75
21
-107.5
0
LINE
8
0
10
335.75
20
-107.5
11
321.75
21
-107.5
0
LINE
8
0
10
321.75
20
-107.5
11
321.75
21
-121.5
0
LINE
8
0
10
321.75
20
-103.75
11
335.75
21
-103.75
0
LINE
8
0
10
335.75
20
-103.75
11
335.75
21
-89.75
0
LINE
8
0
10
335.75
20
-89.75
11
321.75
21
-89.75
0
LINE
8
0
10
321.75
20
-89.75
11
321.75
21
-103.75
0
LINE
8
0
10
321.75
20
-86
11
335.75
21
-86
0
LINE
8
0
10
335.75
20
-86
11
335.75
21
-72
0
LINE
8
0
10
335.75
20
-72
11
321.75
21
-72
0
LINE
8
0
10
321.75
20
-72
11
321.75
21
-86
0
LINE
8
0
10
303
20
-154.5
11
317
21
-154.5
0
LINE
8
0
10
317
20
-154.5
11
317
21
-140.5
0
LINE
8
0
10
317
20
-140.5
11
303
21
-140.5
0
LINE
8
0
10
303
20
-140.5
11
303
21
-154.5
0
LINE
8
0
10
303
20
-136.75
11
317
21
-136.75
0
LINE
8
0
10
317
20
-136.75
11
317
21
-122.75
0
LINE
8
0
10
317
20
-122.75
11
303
21
-122.75
0
LINE
8
0
10
303
20
-122.75
11
303
21
-136.75
0
LINE
8
0
10
303
20
-119
11
317
21
-119
0
LINE
8
0
10
317
20
-119
11
317
21
-105
0
LINE
8
0
10
317
20
-105
11
303
21
-105
0
LINE
8
0
10
303
20
-105
11
303
21
-119
0
LINE
8
0
10
303
20
-101.25
11
317
21
-101.25
0
LINE
8
0
10
317
20
-101.25
11
317
21
-87.25
0
LINE
8
0
10
317
20
-87.25
11
303
21
-87.25
0
LINE
8
0
10
303
20
-87.25
11
303
21
-101.25
0
LINE
8
0
10
303
20
-83.5
11
317
21
-83.5
0
LINE
8
0
10
317
20
-83.5
11
317
21
-69.5
0
LINE
8
0
10
317
20
-69.5
11
303
21
-69.5
0
LINE
8
0
10
303
20
-69.5
11
303
21
-83.5
0
LINE
8
0
10
284.25
20
-152
11
298.25
21
-152
0
LINE
8
0
10
298.25
20
-152
11
298.25
21
-138
0
LINE
8
0
10
298.25
20
-138
11
284.25
21
-138
0
LINE
8
0
10
284.25
20
-138
11
284.25
21
-152
0
LINE
8
0
10
284.25
20
-134.25
11
298.25
21
-134.25
0
LINE
8
0
10
298.25
20
-134.25
11
298.25
21
-120.25
0
LINE
8
0
10
298.25
20
-120.25
11
284.25
21
-120.25
0
LINE
8
0
10
284.25
20
-120.25
11
284.25
21
-134.25
0
LINE
8
0
10
284.25
20
-116.5
11
298.25
21
-116.5
0
LINE
8
0
10
298.25
20
-116.5
11
298.25
21
-102.5
0
LINE
8
0
10
298.25
20
-102.5
11
284.25
21
-102.5
0
LINE
8
0
10
284.25
20
-102.5
11
284.25
21
-116.5
0
LINE
8
0
10
284.25
20
-98.75
11
298.25
21
-98.75
0
LINE
8
0
10
298.25
20
-98.75
11
298.25
21
-84.75
0
LINE
8
0
10
298.25
20
-84.75
11
284.25
21
-84.75
0
LINE
8
0
10
284.25
20
-84.75
11
284.25
21
-98.75
0
LINE
8
0
10
284.25
20
-81
11
298.25
21
-81
0
LINE
8
0
10
298.25
20
-81
11
298.25
21
-67
0
LINE
8
0
10
298.25
20
-67
11
284.25
21
-67
0
LINE
8
0
10
284.25
20
-67
11
284.25
21
-81
0
LINE
8
0
10
265.5
20
-154.5
11
279.5
21
-154.5
0
LINE
8
0
10
279.5
20
-154.5
11
279.5
21
-140.5
0
LINE
8
0
10
279.5
20
-140.5
11
265.5
21
-140.5
0
LINE
8
0
10
265.5
20
-140.5
11
265.5
21
-154.5
0
LINE
8
0
10
265.5
20
-136.75
11
279.5
21
-136.75
0
LINE
8
0
10
279.5
20
-136.75
11
279.5
21
-122.75
0
LINE
8
0
10
279.5
20
-122.75
11
265.5
21
-122.75
0
LINE
8
0
10
265.5
20
-122.75
11
265.5
21
-136.75
0
LINE
8
0
10
265.5
20
-119
11
279.5
21
-119
0
LINE
8
0
10
279.5
20
-119
11
279.5
21
-105
0
LINE
8
0
10
279.5
20
-105
11
265.5
21
-105
0
LINE
8
0
10
265.5
20
-105
11
265.5
21
-119
0
LINE
8
0
10
265.5
20
-101.25
11
279.5
21
-101.25
0
LINE
8
0
10
279.5
20
-101.25
11
279.5
21
-87.25
0
LINE
8
0
10
279.5
20
-87.25
11
265.5
21
-87.25
0
LINE
8
0
10
265.5
20
-87.25
11
265.5
21
-101.25
0
LINE
8
0
10
265.5
20
-83.5
11
279.5
21
-83.5
0
LINE
8
0
10
279.5
20
-83.5
11
279.5
21
-69.5
0
LINE
8
0
10
279.5
20
-69.5
11
265.5
21
-69.5
0
LINE
8
0
10
265.5
20
-69.5
11
265.5
21
-83.5
0
LINE
8
0
10
246.75
20
-157
11
260.75
21
-157
0
LINE
8
0
10
260.75
20
-157
11
260.75
21
-143
0
LINE
8
0
10
260.75
20
-143
11
246.75
21
-143
0
LINE
8
0
10
246.75
20
-143
11
246.75
21
-157
0
LINE
8
0
10
246.75
20
-139.25
11
260.75
21
-139.25
0
LINE
8
0
10
260.75
20
-139.25
11
260.75
21
-125.25
0
LINE
8
0
10
260.75
20
-125.25
11
246.75
21
-125.25
0
LINE
8
0
10
246.75
20
-125.25
11
246.75
21
-139.25
0
LINE
8
0
10
246.75
20
-121.5
11
260.75
21
-121.5
0
LINE
8
0
10
260.75
20
-121.5
11
260.75
21
-107.5
0
LINE
8
0
10
260.75
20
-107.5
11
246.75
21
-107.5
0
LINE
8
0
10
246.75
20
-107.5
11
246.75
21
-121.5
0
LINE
8
0
10
246.75
20
-103.75
11
260.75
21
-103.75
0
LINE
8
0
10
260.75
20
-103.75
11
260.75
21
-89.75
0
LINE
8
0
10
260.75
20
-89.75
11
246.75
21
-89.75
0
LINE
8
0
10
246.75
20
-89.75
11
246.75
21
-103.75
0
LINE
8
0
10
246.75
20
-86
11
260.75
21
-86
0
LINE
8
0
10
260.75
20
-86
11
260.75
21
-72
0
LINE
8
0
10
260.75
20
-72
11
246.75
21
-72
0
LINE
8
0
10
246.75
20
-72
11
246.75
21
-86
0
ENDSEC
0
EOF