0
SECTION
2
HEADER
9
$INSUNITS
70
4
0
ENDSEC
0
SECTION
2
TABLES
0
TABLE
2
LTYPE
0
LTYPE
72
65
70
64
2
CONTINUOUS
3
______
73
0
40
0
0
ENDTAB
0
TABLE
2
LAYER
0
ENDTAB
0
ENDSEC
0
SECTION
2
ENTITIES
0
LINE
8
0
10
21.25
20
-108.25
11
38.75
21
-108.25
0
LINE
8
0
10
38.75
20
-108.25
11
38.75
21
-91.75
0
LINE
8
0
10
38.75
20
-91.75
11
21.25
21
-91.75
0
LINE
8
0
10
21.25
20
-91.75
11
21.25
21
-108.25
0
LINE
8
0
10
21.25
20
-91.25
11
38.75
21
-91.25
0
LINE
8
0
10
38.75
20
-91.25
11
38.75
21
-74.75
0
LINE
8
0
10
38.75
20
-74.75
11
21.25
21
-74.75
0
LINE
8
0
10
21.25
20
-74.75
11
21.25
21
-91.25
0
LINE
8
0
10
21.25
20
-74.25
11
38.75
21
-74.25
0
LINE
8
0
10
38.75
20
-74.25
11
38.75
21
-57.75
0
LINE
8
0
10
38.75
20
-57.75
11
21.25
21
-57.75
0
LINE
8
0
10
21.25
20
-57.75
11
21.25
21
-74.25
0
LINE
8
0
10
21.25
20
-57.25
11
38.75
21
-57.25
0
LINE
8
0
10
38.75
20
-57.25
11
38.75
21
-40.75
0
LINE
8
0
10
38.75
20
-40.75
11
21.25
21
-40.75
0
LINE
8
0
10
21.25
20
-40.75
11
21.25
21
-57.25
0
LINE
8
0
10
21.25
20
-40.25
11
38.75
21
-40.25
0
LINE
8
0
10
38.75
20
-40.25
11
38.75
21
-23.75
0
LINE
8
0
10
38.75
20
-23.75
11
21.25
21
-23.75
0
LINE
8
0
10
21.25
20
-23.75
11
21.25
21
-40.25
0
LINE
8
0
10
39.25
20
-108.25
11
56.75
21
-108.25
0
LINE
8
0
10
56.75
20
-108.25
11
56.75
21
-91.75
0
LINE
8
0
10
56.75
20
-91.75
11
39.25
21
-91.75
0
LINE
8
0
10
39.25
20
-91.75
11
39.25
21
-108.25
0
LINE
8
0
10
39.25
20
-91.25
11
56.75
21
-91.25
0
LINE
8
0
10
56.75
20
-91.25
11
56.75
21
-74.75
0
LINE
8
0
10
56.75
20
-74.75
11
39.25
21
-74.75
0
LINE
8
0
10
39.25
20
-74.75
11
39.25
21
-91.25
0
LINE
8
0
10
39.25
20
-74.25
11
56.75
21
-74.25
0
LINE
8
0
10
56.75
20
-74.25
11
56.75
21
-57.75
0
LINE
8
0
10
56.75
20
-57.75
11
39.25
21
-57.75
0
LINE
8
0
10
39.25
20
-57.75
11
39.25
21
-74.25
0
LINE
8
0
10
39.25
20
-57.25
11
56.75
21
-57.25
0
LINE
8
0
10
56.75
20
-57.25
11
56.75
21
-40.75
0
LINE
8
0
10
56.75
20
-40.75
11
39.25
21
-40.75
0
LINE
8
0
10
39.25
20
-40.75
11
39.25
21
-57.25
0
LINE
8
0
10
39.25
20
-40.25
11
56.75
21
-40.25
0
LINE
8
0
10
56.75
20
-40.25
11
56.75
21
-23.75
0
LINE
8
0
10
56.75
20
-23.75
11
39.25
21
-23.75
0
LINE
8
0
10
39.25
20
-23.75
11
39.25
21
-40.25
0
LINE
8
0
10
57.25
20
-105.75
11
74.75
21
-105.75
0
LINE
8
0
10
74.75
20
-105.75
11
74.75
21
-89.25
0
LINE
8
0
10
74.75
20
-89.25
11
57.25
21
-89.25
0
LINE
8
0
10
57.25
20
-89.25
11
57.25
21
-105.75
0
LINE
8
0
10
57.25
20
-88.75
11
74.75
21
-88.75
0
LINE
8
0
10
74.75
20
-88.75
11
74.75
21
-72.25
0
LINE
8
0
10
74.75
20
-72.25
11
57.25
21
-72.25
0
LINE
8
0
10
57.25
20
-72.25
11
57.25
21
-88.75
0
LINE
8
0
10
57.25
20
-71.75
11
74.75
21
-71.75
0
LINE
8
0
10
74.75
20
-71.75
11
74.75
21
-55.25
0
LINE
8
0
10
74.75
20
-55.25
11
57.25
21
-55.25
0
LINE
8
0
10
57.25
20
-55.25
11
57.25
21
-71.75
0
LINE
8
0
10
57.25
20
-54.75
11
74.75
21
-54.75
0
LINE
8
0
10
74.75
20
-54.75
11
74.75
21
-38.25
0
LINE
8
0
10
74.75
20
-38.25
11
57.25
21
-38.25
0
LINE
8
0
10
57.25
20
-38.25
11
57.25
21
-54.75
0
LINE
8
0
10
57.25
20
-37.75
11
74.75
21
-37.75
0
LINE
8
0
10
74.75
20
-37.75
11
74.75
21
-21.25
0
LINE
8
0
10
74.75
20
-21.25
11
57.25
21
-21.25
0
LINE
8
0
10
57.25
20
-21.25
11
57.25
21
-37.75
0
LINE
8
0
10
75.25
20
-103.25
11
92.75
21
-103.25
0
LINE
8
0
10
92.75
20
-103.25
11
92.75
21
-86.75
0
LINE
8
0
10
92.75
20
-86.75
11
75.25
21
-86.75
0
LINE
8
0
10
75.25
20
-86.75
11
75.25
21
-103.25
0
LINE
8
0
10
75.25
20
-86.25
11
92.75
21
-86.25
0
LINE
8
0
10
92.75
20
-86.25
11
92.75
21
-69.75
0
LINE
8
0
10
92.75
20
-69.75
11
75.25
21
-69.75
0
LINE
8
0
10
75.25
20
-69.75
11
75.25
21
-86.25
0
LINE
8
0
10
75.25
20
-69.25
11
92.75
21
-69.25
0
LINE
8
0
10
92.75
20
-69.25
11
92.75
21
-52.75
0
LINE
8
0
10
92.75
20
-52.75
11
75.25
21
-52.75
0
LINE
8
0
10
75.25
20
-52.75
11
75.25
21
-69.25
0
LINE
8
0
10
75.25
20
-52.25
11
92.75
21
-52.25
0
LINE
8
0
10
92.75
20
-52.25
11
92.75
21
-35.75
0
LINE
8
0
10
92.75
20
-35.75
11
75.25
21
-35.75
0
LINE
8
0
10
75.25
20
-35.75
11
75.25
21
-52.25
0
LINE
8
0
10
75.25
20
-35.25
11
92.75
21
-35.25
0
LINE
8
0
10
92.75
20
-35.25
11
92.75
21
-18.75
0
LINE
8
0
10
92.75
20
-18.75
11
75.25
21
-18.75
0
LINE
8
0
10
75.25
20
-18.75
11
75.25
21
-35.25
0
LINE
8
0
10
93.25
20
-105.75
11
110.75
21
-105.75
0
LINE
8
0
10
110.75
20
-105.75
11
110.75
21
-89.25
0
LINE
8
0
10
110.75
20
-89.25
11
93.25
21
-89.25
0
LINE
8
0
10
93.25
20
-89.25
11
93.25
21
-105.75
0
LINE
8
0
10
93.25
20
-88.75
11
110.75
21
-88.75
0
LINE
8
0
10
110.75
20
-88.75
11
110.75
21
-72.25
0
LINE
8
0
10
110.75
20
-72.25
11
93.25
21
-72.25
0
LINE
8
0
10
93.25
20
-72.25
11
93.25
21
-88.75
0
LINE
8
0
10
93.25
20
-71.75
11
110.75
21
-71.75
0
LINE
8
0
10
110.75
20
-71.75
11
110.75
21
-55.25
0
LINE
8
0
10
110.75
20
-55.25
11
93.25
21
-55.25
0
LINE
8
0
10
93.25
20
-55.25
11
93.25
21
-71.75
0
LINE
8
0
10
93.25
20
-54.75
11
110.75
21
-54.75
0
LINE
8
0
10
110.75
20
-54.75
11
110.75
21
-38.25
0
LINE
8
0
10
110.75
20
-38.25
11
93.25
21
-38.25
0
LINE
8
0
10
93.25
20
-38.25
11
93.25
21
-54.75
0
LINE
8
0
10
93.25
20
-37.75
11
110.75
21
-37.75
0
LINE
8
0
10
110.75
20
-37.75
11
110.75
21
-21.25
0
LINE
8
0
10
110.75
20
-21.25
11
93.25
21
-21.25
0
LINE
8
0
10
93.25
20
-21.25
11
93.25
21
-37.75
0
LINE
8
0
10
111.25
20
-108.25
11
128.75
21
-108.25
0
LINE
8
0
10
128.75
20
-108.25
11
128.75
21
-91.75
0
LINE
8
0
10
128.75
20
-91.75
11
111.25
21
-91.75
0
LINE
8
0
10
111.25
20
-91.75
11
111.25
21
-108.25
0
LINE
8
0
10
111.25
20
-91.25
11
128.75
21
-91.25
0
LINE
8
0
10
128.75
20
-91.25
11
128.75
21
-74.75
0
LINE
8
0
10
128.75
20
-74.75
11
111.25
21
-74.75
0
LINE
8
0
10
111.25
20
-74.75
11
111.25
21
-91.25
0
LINE
8
0
10
111.25
20
-74.25
11
128.75
21
-74.25
0
LINE
8
0
10
128.75
20
-74.25
11
128.75
21
-57.75
0
LINE
8
0
10
128.75
20
-57.75
11
111.25
21
-57.75
0
LINE
8
0
10
111.25
20
-57.75
11
111.25
21
-74.25
0
LINE
8
0
10
111.25
20
-57.25
11
128.75
21
-57.25
0
LINE
8
0
10
128.75
20
-57.25
11
128.75
21
-40.75
0
LINE
8
0
10
128.75
20
-40.75
11
111.25
21
-40.75
0
LINE
8
0
10
111.25
20
-40.75
11
111.25
21
-57.25
0
LINE
8
0
10
111.25
20
-40.25
11
128.75
21
-40.25
0
LINE
8
0
10
128.75
20
-40.25
11
128.75
21
-23.75
0
LINE
8
0
10
128.75
20
-23.75
11
111.25
21
-23.75
0
LINE
8
0
10
111.25
20
-23.75
11
111.25
21
-40.25
0
ENDSEC
0
EOF