0
SECTION
2
HEADER
9
$INSUNITS
70
4
0
ENDSEC
0
SECTION
2
TABLES
0
TABLE
2
LTYPE
0
LTYPE
72
65
70
64
2
CONTINUOUS
3
______
73
0
40
0
0
ENDTAB
0
TABLE
2
LAYER
0
ENDTAB
0
ENDSEC
0
SECTION
2
ENTITIES
0
LINE
8
0
10
21
20
-110.5
11
57
21
-110.5
0
LINE
8
0
10
19
20
-108.5
11
19
21
-23.5
0
LINE
8
0
10
21
20
-21.5
11
55
21
-21.5
0
LINE
8
0
10
59
20
-108.5
11
59
21
-108
0
LINE
8
0
10
59
20
-108
11
75
21
-108
0
LINE
8
0
10
77
20
-106
11
77
21
-105.5
0
LINE
8
0
10
73
20
-19
11
57
21
-19
0
LINE
8
0
10
55
20
-21
11
55
21
-21.5
0
LINE
8
0
10
77
20
-105.5
11
89
21
-105.5
0
LINE
8
0
10
95
20
-17
11
95
21
-16.5
0
LINE
8
0
10
95
20
-16.5
11
75
21
-16.5
0
LINE
8
0
10
73
20
-18.5
11
73
21
-19
0
LINE
8
0
10
91
20
-108
11
107
21
-108
0
LINE
8
0
10
91
20
-107.5
11
91
21
-108
0
LINE
8
0
10
113
20
-19.5
11
113
21
-19
0
LINE
8
0
10
113
20
-19
11
97
21
-19
0
LINE
8
0
10
109
20
-110.5
11
129
21
-110.5
0
LINE
8
0
10
131
20
-108.5
11
131
21
-23.5
0
LINE
8
0
10
109
20
-110
11
109
21
-110.5
0
LINE
8
0
10
129
20
-21.5
11
115
21
-21.5
0
ARC
8
0
10
57
20
-108.5
40
2
50
270
51
0
0
ARC
8
0
10
75
20
-106
40
2
50
270
51
0
0
ARC
8
0
10
89
20
-107.5
40
2
50
0
51
90
0
ARC
8
0
10
107
20
-110
40
2
50
0
51
90
0
ARC
8
0
10
129
20
-108.5
40
2
50
270
51
0
0
ARC
8
0
10
129
20
-23.5
40
2
50
0
51
90
0
ARC
8
0
10
115
20
-19.5
40
2
50
180
51
270
0
ARC
8
0
10
97
20
-17
40
2
50
180
51
270
0
ARC
8
0
10
75
20
-18.5
40
2
50
90
51
180
0
ARC
8
0
10
57
20
-21
40
2
50
90
51
180
0
ARC
8
0
10
21
20
-23.5
40
2
50
90
51
180
0
ARC
8
0
10
21
20
-108.5
40
2
50
180
51
270
0
ENDSEC
0
EOF