0
SECTION
2
HEADER
9
$INSUNITS
70
4
0
ENDSEC
0
SECTION
2
TABLES
0
TABLE
2
LTYPE
0
LTYPE
72
65
70
64
2
CONTINUOUS
3
______
73
0
40
0
0
ENDTAB
0
TABLE
2
LAYER
0
ENDTAB
0
ENDSEC
0
SECTION
2
ENTITIES
0
LINE
8
0
10
87.5
20
-162
11
87.5
21
-67
0
LINE
8
0
10
87.5
20
-67
11
124.25
21
-67
0
LINE
8
0
10
124.25
20
-67
11
125
21
-64.5
0
LINE
8
0
10
125
20
-64.5
11
143
21
-64.5
0
LINE
8
0
10
143
20
-64.5
11
143.75
21
-62
0
LINE
8
0
10
143.75
20
-62
11
168.75
21
-62
0
LINE
8
0
10
168.75
20
-62
11
169.5
21
-64.5
0
LINE
8
0
10
169.5
20
-64.5
11
187.5
21
-64.5
0
LINE
8
0
10
187.5
20
-64.5
11
188.2501
21
-67
0
LINE
8
0
10
188.2501
20
-67
11
206.25
21
-67
0
LINE
8
0
10
206.25
20
-67
11
206.25
21
-162
0
LINE
8
0
10
206.25
20
-162
11
183.25
21
-162
0
LINE
8
0
10
183.25
20
-162
11
180.5
21
-159.5
0
LINE
8
0
10
180.5
20
-159.5
11
162.5
21
-159.5
0
LINE
8
0
10
162.5
20
-159.5
11
161.75
21
-157
0
LINE
8
0
10
161.75
20
-157
11
150.75
21
-157
0
LINE
8
0
10
150.75
20
-157
11
150
21
-159.5
0
LINE
8
0
10
150
20
-159.5
11
132
21
-159.5
0
LINE
8
0
10
132
20
-159.5
11
131.25
21
-162
0
LINE
8
0
10
87.5
20
-162
11
131.25
21
-162
0
LINE
8
0
10
93
20
-157
11
107
21
-157
0
LINE
8
0
10
107
20
-157
11
107
21
-143
0
LINE
8
0
10
107
20
-143
11
93
21
-143
0
LINE
8
0
10
93
20
-143
11
93
21
-157
0
LINE
8
0
10
93
20
-139.25
11
107
21
-139.25
0
LINE
8
0
10
107
20
-139.25
11
107
21
-125.25
0
LINE
8
0
10
107
20
-125.25
11
93
21
-125.25
0
LINE
8
0
10
93
20
-125.25
11
93
21
-139.25
0
LINE
8
0
10
93
20
-121.5
11
107
21
-121.5
0
LINE
8
0
10
107
20
-121.5
11
107
21
-107.5
0
LINE
8
0
10
107
20
-107.5
11
93
21
-107.5
0
LINE
8
0
10
93
20
-107.5
11
93
21
-121.5
0
LINE
8
0
10
93
20
-103.75
11
107
21
-103.75
0
LINE
8
0
10
107
20
-103.75
11
107
21
-89.75
0
LINE
8
0
10
107
20
-89.75
11
93
21
-89.75
0
LINE
8
0
10
93
20
-89.75
11
93
21
-103.75
0
LINE
8
0
10
93
20
-86
11
107
21
-86
0
LINE
8
0
10
107
20
-86
11
107
21
-72
0
LINE
8
0
10
107
20
-72
11
93
21
-72
0
LINE
8
0
10
93
20
-72
11
93
21
-86
0
LINE
8
0
10
111.75
20
-157
11
125.75
21
-157
0
LINE
8
0
10
125.75
20
-157
11
125.75
21
-143
0
LINE
8
0
10
125.75
20
-143
11
111.75
21
-143
0
LINE
8
0
10
111.75
20
-143
11
111.75
21
-157
0
LINE
8
0
10
111.75
20
-139.25
11
125.75
21
-139.25
0
LINE
8
0
10
125.75
20
-139.25
11
125.75
21
-125.25
0
LINE
8
0
10
125.75
20
-125.25
11
111.75
21
-125.25
0
LINE
8
0
10
111.75
20
-125.25
11
111.75
21
-139.25
0
LINE
8
0
10
111.75
20
-121.5
11
125.75
21
-121.5
0
LINE
8
0
10
125.75
20
-121.5
11
125.75
21
-107.5
0
LINE
8
0
10
125.75
20
-107.5
11
111.75
21
-107.5
0
LINE
8
0
10
111.75
20
-107.5
11
111.75
21
-121.5
0
LINE
8
0
10
111.75
20
-103.75
11
125.75
21
-103.75
0
LINE
8
0
10
125.75
20
-103.75
11
125.75
21
-89.75
0
LINE
8
0
10
125.75
20
-89.75
11
111.75
21
-89.75
0
LINE
8
0
10
111.75
20
-89.75
11
111.75
21
-103.75
0
LINE
8
0
10
111.75
20
-86
11
125.75
21
-86
0
LINE
8
0
10
125.75
20
-86
11
125.75
21
-72
0
LINE
8
0
10
125.75
20
-72
11
111.75
21
-72
0
LINE
8
0
10
111.75
20
-72
11
111.75
21
-86
0
LINE
8
0
10
130.5
20
-154.5
11
144.5
21
-154.5
0
LINE
8
0
10
144.5
20
-154.5
11
144.5
21
-140.5
0
LINE
8
0
10
144.5
20
-140.5
11
130.5
21
-140.5
0
LINE
8
0
10
130.5
20
-140.5
11
130.5
21
-154.5
0
LINE
8
0
10
130.5
20
-136.75
11
144.5
21
-136.75
0
LINE
8
0
10
144.5
20
-136.75
11
144.5
21
-122.75
0
LINE
8
0
10
144.5
20
-122.75
11
130.5
21
-122.75
0
LINE
8
0
10
130.5
20
-122.75
11
130.5
21
-136.75
0
LINE
8
0
10
130.5
20
-119
11
144.5
21
-119
0
LINE
8
0
10
144.5
20
-119
11
144.5
21
-105
0
LINE
8
0
10
144.5
20
-105
11
130.5
21
-105
0
LINE
8
0
10
130.5
20
-105
11
130.5
21
-119
0
LINE
8
0
10
130.5
20
-101.25
11
144.5
21
-101.25
0
LINE
8
0
10
144.5
20
-101.25
11
144.5
21
-87.25
0
LINE
8
0
10
144.5
20
-87.25
11
130.5
21
-87.25
0
LINE
8
0
10
130.5
20
-87.25
11
130.5
21
-101.25
0
LINE
8
0
10
130.5
20
-83.5
11
144.5
21
-83.5
0
LINE
8
0
10
144.5
20
-83.5
11
144.5
21
-69.5
0
LINE
8
0
10
144.5
20
-69.5
11
130.5
21
-69.5
0
LINE
8
0
10
130.5
20
-69.5
11
130.5
21
-83.5
0
LINE
8
0
10
149.25
20
-152
11
163.25
21
-152
0
LINE
8
0
10
163.25
20
-152
11
163.25
21
-138
0
LINE
8
0
10
163.25
20
-138
11
149.25
21
-138
0
LINE
8
0
10
149.25
20
-138
11
149.25
21
-152
0
LINE
8
0
10
149.25
20
-134.25
11
163.25
21
-134.25
0
LINE
8
0
10
163.25
20
-134.25
11
163.25
21
-120.25
0
LINE
8
0
10
163.25
20
-120.25
11
149.25
21
-120.25
0
LINE
8
0
10
149.25
20
-120.25
11
149.25
21
-134.25
0
LINE
8
0
10
149.25
20
-116.5
11
163.25
21
-116.5
0
LINE
8
0
10
163.25
20
-116.5
11
163.25
21
-102.5
0
LINE
8
0
10
163.25
20
-102.5
11
149.25
21
-102.5
0
LINE
8
0
10
149.25
20
-102.5
11
149.25
21
-116.5
0
LINE
8
0
10
149.25
20
-98.75
11
163.25
21
-98.75
0
LINE
8
0
10
163.25
20
-98.75
11
163.25
21
-84.75
0
LINE
8
0
10
163.25
20
-84.75
11
149.25
21
-84.75
0
LINE
8
0
10
149.25
20
-84.75
11
149.25
21
-98.75
0
LINE
8
0
10
149.25
20
-81
11
163.25
21
-81
0
LINE
8
0
10
163.25
20
-81
11
163.25
21
-67
0
LINE
8
0
10
163.25
20
-67
11
149.25
21
-67
0
LINE
8
0
10
149.25
20
-67
11
149.25
21
-81
0
LINE
8
0
10
168
20
-154.5
11
182
21
-154.5
0
LINE
8
0
10
182
20
-154.5
11
182
21
-140.5
0
LINE
8
0
10
182
20
-140.5
11
168
21
-140.5
0
LINE
8
0
10
168
20
-140.5
11
168
21
-154.5
0
LINE
8
0
10
168
20
-136.75
11
182
21
-136.75
0
LINE
8
0
10
182
20
-136.75
11
182
21
-122.75
0
LINE
8
0
10
182
20
-122.75
11
168
21
-122.75
0
LINE
8
0
10
168
20
-122.75
11
168
21
-136.75
0
LINE
8
0
10
168
20
-119
11
182
21
-119
0
LINE
8
0
10
182
20
-119
11
182
21
-105
0
LINE
8
0
10
182
20
-105
11
168
21
-105
0
LINE
8
0
10
168
20
-105
11
168
21
-119
0
LINE
8
0
10
168
20
-101.25
11
182
21
-101.25
0
LINE
8
0
10
182
20
-101.25
11
182
21
-87.25
0
LINE
8
0
10
182
20
-87.25
11
168
21
-87.25
0
LINE
8
0
10
168
20
-87.25
11
168
21
-101.25
0
LINE
8
0
10
168
20
-83.5
11
182
21
-83.5
0
LINE
8
0
10
182
20
-83.5
11
182
21
-69.5
0
LINE
8
0
10
182
20
-69.5
11
168
21
-69.5
0
LINE
8
0
10
168
20
-69.5
11
168
21
-83.5
0
LINE
8
0
10
186.75
20
-157
11
200.75
21
-157
0
LINE
8
0
10
200.75
20
-157
11
200.75
21
-143
0
LINE
8
0
10
200.75
20
-143
11
186.75
21
-143
0
LINE
8
0
10
186.75
20
-143
11
186.75
21
-157
0
LINE
8
0
10
186.75
20
-139.25
11
200.75
21
-139.25
0
LINE
8
0
10
200.75
20
-139.25
11
200.75
21
-125.25
0
LINE
8
0
10
200.75
20
-125.25
11
186.75
21
-125.25
0
LINE
8
0
10
186.75
20
-125.25
11
186.75
21
-139.25
0
LINE
8
0
10
186.75
20
-121.5
11
200.75
21
-121.5
0
LINE
8
0
10
200.75
20
-121.5
11
200.75
21
-107.5
0
LINE
8
0
10
200.75
20
-107.5
11
186.75
21
-107.5
0
LINE
8
0
10
186.75
20
-107.5
11
186.75
21
-121.5
0
LINE
8
0
10
186.75
20
-103.75
11
200.75
21
-103.75
0
LINE
8
0
10
200.75
20
-103.75
11
200.75
21
-89.75
0
LINE
8
0
10
200.75
20
-89.75
11
186.75
21
-89.75
0
LINE
8
0
10
186.75
20
-89.75
11
186.75
21
-103.75
0
LINE
8
0
10
186.75
20
-86
11
200.75
21
-86
0
LINE
8
0
10
200.75
20
-86
11
200.75
21
-72
0
LINE
8
0
10
200.75
20
-72
11
186.75
21
-72
0
LINE
8
0
10
186.75
20
-72
11
186.75
21
-86
0
ENDSEC
0
EOF